<?xml version="1.0" standalone="no"?>
<!DOCTYPE svg PUBLIC "-//W3C//DTD SVG 20010904//EN"
 "http://www.w3.org/TR/2001/REC-SVG-20010904/DTD/svg10.dtd">
<svg version="1.0" xmlns="http://www.w3.org/2000/svg"
 width="880.000000pt" height="660.000000pt" viewBox="0 0 880.000000 660.000000"
 preserveAspectRatio="xMidYMid meet">

<g transform="translate(0.000000,660.000000) scale(0.100000,-0.100000)"
fill="#000000" stroke="none">
<path d="M0 3300 l0 -3300 4400 0 4400 0 0 3300 0 3300 -4400 0 -4400 0 0
-3300z m5546 1455 c21 -9 106 -100 258 -279 255 -300 276 -327 276 -367 0 -30
-510 -1455 -538 -1503 -21 -37 -1079 -781 -1122 -791 -16 -4 -42 0 -61 9 -19
8 -270 180 -558 383 -352 247 -531 378 -543 399 -28 48 -538 1473 -538 1503 0
39 18 64 275 371 153 184 237 276 258 285 45 19 2245 9 2293 -10z"/>
<path d="M3280 4661 c-10 -9 -118 -136 -240 -284 l-222 -267 252 -703 c139
-386 259 -715 267 -732 10 -22 143 -120 525 -385 281 -195 519 -359 529 -364
14 -6 126 68 536 354 285 200 522 370 528 379 14 23 526 1444 523 1452 -10 26
-467 550 -483 554 -11 2 -510 6 -1108 8 -984 3 -1090 2 -1107 -12z m443 -569
c9 -10 73 -167 142 -350 l126 -331 -82 -181 c-46 -99 -85 -180 -88 -180 -3 0
-87 219 -185 488 -99 268 -184 499 -190 513 -20 54 -9 59 132 59 111 0 131 -2
145 -18z m956 -558 l262 -575 -51 -137 c-57 -152 -71 -175 -94 -152 -8 8 -94
188 -192 400 -167 364 -201 429 -211 405 -2 -5 -88 -190 -191 -410 -210 -447
-213 -451 -250 -353 -11 29 -37 97 -57 150 l-36 97 267 576 c147 316 272 575
279 575 7 0 130 -259 274 -576z m679 554 c3 -18 -369 -1038 -379 -1038 -3 0
-42 81 -88 180 l-82 181 126 331 c69 183 133 340 142 350 15 16 32 18 147 16
114 -3 131 -5 134 -20z"/>
</g>
</svg>
